<svg
  xmlns="http://www.w3.org/2000/svg"
  viewBox="0 0 960 600"
  role="img"
  aria-labelledby="title description"
>
  <title id="title">Flood water across a road</title>
  <desc id="description">
    Illustrative local demo evidence showing flood water crossing a neighborhood road.
  </desc>
  <defs>
    <linearGradient id="sky" x2="0" y2="1">
      <stop offset="0" stop-color="#b8d9e7" />
      <stop offset="1" stop-color="#e5eee9" />
    </linearGradient>
    <linearGradient id="water" x2="0" y2="1">
      <stop offset="0" stop-color="#6ca9bb" />
      <stop offset="1" stop-color="#2d7088" />
    </linearGradient>
    <linearGradient id="road" x2="0" y2="1">
      <stop offset="0" stop-color="#7d8582" />
      <stop offset="1" stop-color="#555f5d" />
    </linearGradient>
  </defs>
  <rect width="960" height="600" fill="url(#sky)" />
  <path d="M0 274 136 201l115 53 114-83 142 94 135-71 142 84 176-92v214H0Z" fill="#718879" />
  <path d="m0 321 153-74 120 55 119-82 115 81 119-56 138 72 196-89v148H0Z" fill="#536f5e" />
  <g fill="#e1d6bf" stroke="#5a6d61" stroke-width="5">
    <path d="M66 278v-95l72-53 74 53v95Z" />
    <path d="M256 265v-76l58-42 61 42v76Z" />
    <path d="M671 268v-91l67-49 68 49v91Z" />
    <path d="M831 244v-70l47-34 50 34v70Z" />
  </g>
  <g fill="#718a78" stroke="#5a6d61" stroke-width="4">
    <path d="M42 277c0-26 20-46 44-46s44 20 44 46Z" />
    <path d="M578 282c0-32 25-57 56-57s57 25 57 57Z" />
    <path d="M787 271c0-25 20-45 45-45s45 20 45 45Z" />
  </g>
  <path d="M331 277h305l178 323H112Z" fill="url(#road)" />
  <path
    d="m477 297-10 55h19l9-55m-29 95-12 66h20l11-66m-34 112-15 82h22l15-82"
    fill="#f0df9f"
    opacity=".85"
  />
  <path
    d="M0 345c106-22 196 21 296 5 109-18 174-37 284-7 103 28 219 19 380-17v274H0Z"
    fill="url(#water)"
  />
  <path
    d="M0 383c103-23 181 18 286 2 105-15 192-35 298-7 113 30 235 18 376-13"
    fill="none"
    stroke="#b4dce0"
    stroke-width="7"
    opacity=".8"
  />
  <path
    d="M0 454c97-18 196 18 299 0 105-18 184-29 294-5 110 24 236 21 367-12"
    fill="none"
    stroke="#a1d0d8"
    stroke-width="5"
    opacity=".7"
  />
  <path
    d="M118 417c41-13 70-13 110-3m470 56c38-13 74-14 116-5M290 526c50-13 92-12 134-2"
    fill="none"
    stroke="#d2ebea"
    stroke-linecap="round"
    stroke-width="6"
    opacity=".7"
  />
  <g stroke="#e8f1ec" stroke-linecap="round" stroke-width="5" opacity=".55">
    <path d="m219 37-24 48m98-64-23 47m104-28-25 49m398-71-25 49m99-32-24 48m93-57-24 48" />
  </g>
  <g transform="translate(790 350)">
    <path d="M0 0v90" stroke="#465b52" stroke-width="9" />
    <path d="M5 3h92l-15 42H5Z" fill="#f4c75e" stroke="#5c6047" stroke-width="4" />
    <path d="m34 12-13 22h17l-8 15 28-27H40l8-10Z" fill="#615025" />
  </g>
  <rect x="22" y="22" width="184" height="34" rx="17" fill="#173d49" opacity=".8" />
  <text
    x="114"
    y="45"
    fill="#fff"
    font-family="system-ui, sans-serif"
    font-size="16"
    font-weight="700"
    text-anchor="middle"
    letter-spacing="1.5"
  >
    DEMO ILLUSTRATION
  </text>
</svg>
